<svg id="Layer_1" data-name="Layer 1" xmlns="http://www.w3.org/2000/svg" viewBox="0 0 55.74 40.43"><defs><style>.cls-1{fill:#231f20;}.cls-2{stroke:#000;stroke-miterlimit:10;stroke-width:0.08px;}</style></defs><path class="cls-1" d="M8.65,34h0l-.18.4v0H8.31l0-.08.75-1.71v0h.07v0l.75,1.71,0,.08H9.86v0L9.67,34h-1Zm1-.11L9.15,32.8l-.49,1.09Z"/><path class="cls-1" d="M12,33.56c.14.11.25.29.4.8l0,.07h-.11v0c-.18-.58-.28-.7-.45-.82h-.68v.86h-.1V32.61h.8a.51.51,0,0,1,.53.48A.5.5,0,0,1,12,33.56Zm-.31-.09h.18a.41.41,0,0,0,.43-.38.4.4,0,0,0-.43-.37h-.7v.75Z"/><path class="cls-1" d="M14.13,32.61h.63v.11h-.63v1.71H14V32.72h-.65v-.11h.76Z"/><path class="cls-1" d="M21.1,34.13a.69.69,0,0,1-.53.3.56.56,0,0,1-.57-.81,1.06,1.06,0,0,1,.38-.34.73.73,0,0,1-.16-.33h0a.35.35,0,0,1,.7,0c0,.11-.16.23-.38.35l0,0a7.32,7.32,0,0,0,.56.65c.14-.2.25-.38.36-.38h.06v.11h-.06c-.09,0-.17.18-.28.34h0l.32.29.11.09h-.18A4.11,4.11,0,0,1,21.1,34.13Zm-.66-.76a.85.85,0,0,0-.34.3.45.45,0,0,0,.47.65.57.57,0,0,0,.45-.26A5.59,5.59,0,0,1,20.44,33.37Zm0-.14,0,0c.16-.09.33-.16.32-.26a.23.23,0,0,0-.24-.23.22.22,0,0,0-.24.23A.65.65,0,0,0,20.46,33.23Z"/><path class="cls-1" d="M27.47,34l.09,0a.81.81,0,0,1-.68.39.92.92,0,0,1,0-1.82.81.81,0,0,1,.68.39l-.09,0a.69.69,0,0,0-.59-.33.81.81,0,0,0,0,1.6A.73.73,0,0,0,27.47,34Z"/><path class="cls-1" d="M29.43,32.66v0h.11v1.71h1v.11H29.43V32.66Z"/><path class="cls-1" d="M32.21,33.52a.81.81,0,1,1,.8.91A.86.86,0,0,1,32.21,33.52Zm.1,0a.7.7,0,1,0,.7-.8A.75.75,0,0,0,32.31,33.52Z"/><path class="cls-1" d="M36.26,32.61h.64v.11h-.64v1.71h-.1V32.72h-.65v-.11h.75Z"/><path class="cls-1" d="M40.05,33.57v.86h-.11v-.86H38.82v.86h-.11V32.61h.11v.86h1.12v-.86h.11v1Z"/><path class="cls-1" d="M42.07,32.66v0h.11v1.82h-.11V32.66Z"/><path class="cls-1" d="M44.31,34.37v.06H44.2V32.61h.08l0,0,1.13,1.58v-1.6h.11v1.82h-.08v0l-1.13-1.58Z"/><path class="cls-1" d="M47.91,33.57v-.1h.79v.05a.81.81,0,1,1-.8-.91.82.82,0,0,1,.69.39l-.1,0a.65.65,0,0,0-.59-.33.81.81,0,0,0,0,1.6.74.74,0,0,0,.7-.75Z"/><path class="cls-2" d="M11.77,14a3,3,0,0,0-2-3.46C8.12,10.21,7,11.9,6.4,13.18a4.13,4.13,0,0,0-.52,2.49,1.54,1.54,0,0,0,1.69,1c1.86-.06,3.27-1.68,4.41-3l-.74-.56a4,4,0,0,0,.2,4.21,3.63,3.63,0,0,0,4.15,1.27,14.05,14.05,0,0,0,2.62-1.19c.86-.45,1.71-.92,2.54-1.43a27.43,27.43,0,0,0,4.63-3.47,10.49,10.49,0,0,0,3.16-4.83.47.47,0,0,0-.9-.25c-.67,2.19.21,5.82,3.07,5.72l-.34-.8c-1.22,1.41-2.37,3.16-1.88,5.12a3.51,3.51,0,0,0,3.29,2.57c3.25.15,5.91-2.9,8-5a18.94,18.94,0,0,1,4.5-3.63c.48-.25.14-1-.36-.86a8.47,8.47,0,0,0-3.39,2.14,11.33,11.33,0,0,0-2.78,3.53c-.26.55-.5,1.39,0,1.87s1.36.23,1.89,0a5.4,5.4,0,0,0,2.75-2.54,19.91,19.91,0,0,0,1.64-4l-.92-.13c.06,2-1.09,4-.22,6a4.53,4.53,0,0,0,4.14,2.59,12,12,0,0,0,5.28-1.54c1.68-.82,1.1-1.65,1-1.58-2.45,1.4-7.13,3.8-9.26.67-1.26-1.85.08-4.13,0-6.15a.47.47,0,0,0-.92-.12A19.36,19.36,0,0,1,41.72,15c-.62,1.11-1.55,2.3-2.91,2.43-.27,0-.38.06-.4-.22a1.13,1.13,0,0,1,.15-.46,5.5,5.5,0,0,1,.53-.95,12.68,12.68,0,0,1,1.56-1.87,8.27,8.27,0,0,1,3.52-2.41l-.36-.86C41.14,12,39.22,14.47,37,16.46c-1.63,1.5-5,4.11-7.11,1.83-1.5-1.65-.06-3.9,1.11-5.24a.47.47,0,0,0-.33-.8c-2.23.08-2.65-2.94-2.17-4.53l-.9-.25a10,10,0,0,1-3.15,4.64,29.34,29.34,0,0,1-5.17,3.67c-.88.49-1.76,1-2.67,1.42a4.57,4.57,0,0,1-2.9.66,2.89,2.89,0,0,1-1.7-4.23c.27-.45-.38-1-.74-.57A9.1,9.1,0,0,1,8.54,15.5c-.39.19-1.39.52-1.71.05s.2-1.46.37-1.87c.34-.84,1-2.18,2.09-2.23s1.74,1.4,1.58,2.32c-.1.59.8.85.9.25Z"/><path class="cls-2" d="M4,23.77a15.1,15.1,0,0,0-.39,5.48.25.25,0,0,0,.46.13A30.93,30.93,0,0,0,6.21,24.7a11.81,11.81,0,0,1,1.21-2.24,2.35,2.35,0,0,1,.19-.25c.06-.05.06-.08.15-.09s0,0,.1.07a1.34,1.34,0,0,1,0,.57l0,1c0,1.21-.17,2.46-.09,3.67a.54.54,0,0,0,.11.37c.17.17.35,0,.46-.12.3-.42.56-.87.82-1.31s.62-1.09.94-1.63c.13-.22.26-.43.4-.64s.22-.27.3-.41,0,0,0,0-.08,0-.14,0-.09-.08-.08.05a1.68,1.68,0,0,1-.08.54,12.93,12.93,0,0,1-.48,1.49,8.71,8.71,0,0,0-.48,3.18c0,.75.2,1.54,1,1.26a5.58,5.58,0,0,0,1.2-.65,18.66,18.66,0,0,0,1.54-1.15,35.05,35.05,0,0,0,3.19-2.9c.21-.21.41-.43.6-.65s-.13-.58-.35-.35a29.91,29.91,0,0,1-3,2.87c-.94.81-3,2.35-3.45,2.3s-.3-.69-.27-1a13.34,13.34,0,0,1,.63-3.26c.1-.27.83-2.24,0-2.13-.3,0-.52.46-.66.68-.32.48-.6,1-.89,1.48s-.6,1-.92,1.57l-.18.28c-.05.07-.17.18-.18.26l.37,0,0,0a0,0,0,0,1,0,0s0,0,0,0,0-.17,0-.25c0-1.32.07-2.63.11-3.95,0-.48.19-1.59-.48-1.72-.4-.08-.68.32-.88.6a8.46,8.46,0,0,0-.66,1.06C5.53,24.77,5,26.46,4.26,28a10.8,10.8,0,0,1-.63,1.1l.46.13a15.07,15.07,0,0,1,.37-5.35c.08-.31-.4-.44-.47-.13Z"/><path class="cls-2" d="M16.88,24.22a8,8,0,0,0-.93,3c0,.49.09,1.44.77,1.41s1-.61,1.26-1a8.7,8.7,0,0,0,1.15-2.25,5.13,5.13,0,0,0,.36-2.65.77.77,0,0,0-.85-.67,1.83,1.83,0,0,0-1.07.69c-.6.68-1.1,2-.46,2.78a3,3,0,0,0,2.84.82,7.29,7.29,0,0,0,5-4.06l-.45-.06A2.55,2.55,0,0,0,27.34,24l-.19-.45A3.79,3.79,0,0,0,25.61,26a1.85,1.85,0,0,0,.13,1.42,1.18,1.18,0,0,0,1,.46,8.68,8.68,0,0,0,3.58-.63,8.46,8.46,0,0,0,2.51-1.9c.39-.44,1.26-1.53.69-2.13s-1.91.19-2.38.71a2,2,0,0,0-.56,1.45A3.53,3.53,0,0,0,31,26.72a2,2,0,0,0,1,1,2.13,2.13,0,0,0,1.49-.09,6.78,6.78,0,0,0,1.6-1l1.61-1.25.86-.66c.13-.1.31-.31.47-.33s.19.08.26.2c.29.57-.08,1.21-.38,1.7l.43.25a5,5,0,0,1,1-1.21c.2-.18.94-.83,1.13-.43a1.72,1.72,0,0,1,0,.75,2.69,2.69,0,0,0,.06.63,2.49,2.49,0,0,0,.58,1.07c1.51,1.63,3.72-.31,5-1.25.26-.19,0-.62-.25-.43q-.65.48-1.32.93a5.7,5.7,0,0,1-1.5.8A1.63,1.63,0,0,1,41,26a4.55,4.55,0,0,0-.11-1.33.69.69,0,0,0-.93-.33,4.54,4.54,0,0,0-2.06,2,.25.25,0,0,0,.43.25,2.24,2.24,0,0,0,.36-2.24.71.71,0,0,0-.74-.41,1.13,1.13,0,0,0-.47.25l-.66.52c-.84.65-1.67,1.33-2.54,1.94s-1.85,1.13-2.6.32a2.55,2.55,0,0,1-.62-1.21,1.61,1.61,0,0,1,.31-1.3c.33-.38,1-1,1.5-.8.19.08.25.3.16.55a5.36,5.36,0,0,1-1.54,1.74,8.25,8.25,0,0,1-2.57,1.4c-.71.22-2.92.56-2.89-.69A3.29,3.29,0,0,1,27.4,24a.25.25,0,0,0-.19-.45A2.07,2.07,0,0,1,25,22.06a.25.25,0,0,0-.45-.06,7.47,7.47,0,0,1-3.42,3.45,4.22,4.22,0,0,1-2.34.39,2.26,2.26,0,0,1-1.21-.56,1.34,1.34,0,0,1-.15-1.34,2.49,2.49,0,0,1,.64-1c.19-.18.69-.63.89-.23a2.31,2.31,0,0,1,0,1.17,7.16,7.16,0,0,1-.23,1,8.45,8.45,0,0,1-.85,1.92,3.92,3.92,0,0,1-1,1.2c-.12.07-.25.14-.31.08s-.2-.62-.19-.85a7.21,7.21,0,0,1,.87-2.74c.13-.29-.29-.54-.43-.25Z"/><path class="cls-2" d="M49.05,24.07a1.93,1.93,0,0,0-2.17.27c-.52.4-1.4,1.3-.84,2s1.35.34,1.93.06a16.44,16.44,0,0,0,2.16-1.47l-.34-.34A7.06,7.06,0,0,0,49,26.63c-.06.82.38,1.86,1.35,1.66a4.56,4.56,0,0,0,1.31-.64q.61-.36,1.2-.75c.72-.5,1.2-1.38-.53-.25-.45.29-.91.57-1.38.83a1.89,1.89,0,0,1-.8.34c-.32,0-.48-.22-.57-.49-.3-.88.29-1.73.63-2.51.09-.2-.11-.5-.34-.34-.5.36-1,.75-1.49,1.08a2.66,2.66,0,0,1-1.61.63c-.91-.11,0-1.11.31-1.39a1.47,1.47,0,0,1,1.7-.3.25.25,0,0,0,.26-.43Z"/></svg>